<?xml version="1.0"?>
<svg version="1.1" xmlns="http://www.w3.org/2000/svg" width="400" height="200" style="border: dashed 2px #aaa"><path fill="#148be0" d="M19.2,109.38l0.56,2.94s1.26,0.7,3.08,0.7c2.044,0,4.284-1.008,4.284-2.996c0-4.312-10.108-2.52-10.108-9.212c0-3.92,3.136-5.572,6.636-5.572c2.66,0,5.908,1.12,5.908,1.12l-0.14,4.76l-1.82,0l-0.952-2.996s-1.428-0.504-2.968-0.504c-2.52,0-3.724,1.316-3.724,2.716c0,4.256,10.08,2.632,10.08,8.932c0,4.2-3.388,6.132-7.308,6.132c-2.94,0-5.768-1.12-5.768-1.12l0-4.9l2.24,0z M36.0728,112.908l6.384-17.248l2.8-0.14l6.216,17.388l2.324,0.532l0,1.68l-8.12,0l0-1.68l2.604-0.532l-1.064-3.108l-7.28,0l-1.092,3.108l2.632,0.532l0,1.68l-7.7,0l0-1.68z M46.4608,107.56l-2.828-8.428l-2.94,8.428l5.768,0z M57.1176,115.12l0-1.68l2.38-0.56l0-15.12l-2.38-0.56l0-1.54l7.7-0.14l0,1.68l-2.38,0.56l0,15.12l2.38,0.56l0,1.68l-7.7,0z M74.4384,104.06l6.44,0l0,2.24l-6.44,0l0,6.58l2.8,0.56l0,1.68l-8.12,0l0-1.68l2.38-0.56l0-15.12l-2.38-0.56l0-1.54l5.32-0.14l8.54,0l0,4.62l-1.82,0l-0.7-2.38l-6.02,0l0,6.3z M104.4992,97.76l0,9.38c0,5.18-1.82,8.26-7.7,8.26c-5.46,0-7.42-2.66-7.42-7.84l0-9.8l-2.38-0.56l0-1.54l7.98-0.14l0,1.68l-2.66,0.56l0,9.8c0,4.2,1.4,5.46,4.62,5.46c3.5,0,4.62-1.54,4.62-5.88l0-9.38l-2.66-0.56l0-1.54l7.98-0.14l0,1.68z M121.96,112.88l0.56-3.22l1.96,0l0,5.46l-13.58,0l0-1.68l2.38-0.56l0-15.12l-2.38-0.56l0-1.54l7.7-0.14l0,1.68l-2.38,0.56l0,15.12l5.74,0z M136.3016,115.12l0-1.68l2.38-0.56l0-15.12l-2.38-0.56l0-1.54l7.7-0.14l0,1.68l-2.38,0.56l0,15.12l2.38,0.56l0,1.68l-7.7,0z M151.3824,109.38l0.56,2.94s1.26,0.7,3.08,0.7c2.044,0,4.284-1.008,4.284-2.996c0-4.312-10.108-2.52-10.108-9.212c0-3.92,3.136-5.572,6.636-5.572c2.66,0,5.908,1.12,5.908,1.12l-0.14,4.76l-1.82,0l-0.952-2.996s-1.428-0.504-2.968-0.504c-2.52,0-3.724,1.316-3.724,2.716c0,4.256,10.08,2.632,10.08,8.932c0,4.2-3.388,6.132-7.308,6.132c-2.94,0-5.768-1.12-5.768-1.12l0-4.9l2.24,0z M177.8592,112.88l0.56-3.22l1.96,0l0,5.46l-13.58,0l0-1.68l2.38-0.56l0-15.12l-2.38-0.56l0-1.54l7.7-0.14l0,1.68l-2.38,0.56l0,15.12l5.74,0z M185.016,112.908l6.384-17.248l2.8-0.14l6.216,17.388l2.324,0.532l0,1.68l-8.12,0l0-1.68l2.604-0.532l-1.064-3.108l-7.28,0l-1.092,3.108l2.632,0.532l0,1.68l-7.7,0l0-1.68z M195.404,107.56l-2.828-8.428l-2.94,8.428l5.768,0z M223.2808,112.88l0-14l-0.84,2.1l-4.34,8.82l-2.24,0.14l-4.34-9.1l-0.7-1.96l0,14l2.66,0.56l0,1.68l-7.56,0l0-1.68l2.38-0.56l0-15.12l-2.38-0.56l0-1.54l6.3-0.14l5.068,11.2l5.292-11.06l5.88-0.14l0,1.68l-2.38,0.56l0,15.12l2.38,0.56l0,1.68l-7.84,0l0-1.68z"/><path fill="#1518e8" d="M240.0016,112.88l0-15.12l-2.38-0.56l0-1.54l5.32-0.14l3.08,0c3.948,0,6.3,1.904,6.3,5.04c0,2.716-1.232,4.564-3.64,5.46c0.448,0.392,0.952,1.12,1.68,2.52l2.212,4.452l1.988,0.448l0,1.68l-4.2,0l-2.38-5.18c-1.316-2.8-1.932-3.36-3.78-3.36l-1.26,0l0,6.3l2.38,0.56l0,1.68l-7.7,0l0-1.68z M242.9416,104.48l2.1,0c2.744,0,4.34-1.288,4.34-3.5c0-1.876-1.456-3.22-3.5-3.22l-2.94,0l0,6.72z M263.3424,103.78l6.44,0l0,2.24l-6.44,0l0,6.86l6.44,0l0.56-2.8l1.82,0l0,5.04l-14.14,0l0-1.68l2.38-0.56l0-15.12l-2.38-0.56l0-1.54l5.32-0.14l8.54,0l0,4.76l-1.82,0l-0.7-2.52l-6.02,0l0,6.02z M276.8832,115.12l0-1.68l2.38-0.56l0-15.12l-2.38-0.56l0-1.54l7.98-0.14l0,1.68l-2.66,0.56l0,6.16l9.38,0l0-6.16l-2.66-0.56l0-1.54l7.98-0.14l0,1.68l-2.38,0.56l0,15.12l2.38,0.56l0,1.68l-7.98,0l0-1.68l2.66-0.56l0-6.72l-9.38,0l0,6.72l2.66,0.56l0,1.68l-7.98,0z M302.38,112.908l6.384-17.248l2.8-0.14l6.216,17.388l2.324,0.532l0,1.68l-8.12,0l0-1.68l2.604-0.532l-1.064-3.108l-7.28,0l-1.092,3.108l2.632,0.532l0,1.68l-7.7,0l0-1.68z M312.768,107.56l-2.828-8.428l-2.94,8.428l5.768,0z M325.8048,112.88l0-15.12l-2.38-0.56l0-1.54l5.32-0.14l3.5,0c5.46,0,8.82,3.36,8.82,9.52s-3.64,10.08-9.24,10.08l-8.4,0l0-1.68z M328.7448,112.88l3.22,0c3.5,0,5.88-2.38,5.88-7.7c0-5.18-2.24-7.42-5.74-7.42l-3.36,0l0,15.12z"/></svg>
